<?xml version="1.0" encoding="UTF-8" standalone="no"?>
<svg
   xmlns:dc="http://purl.org/dc/elements/1.1/"
   xmlns:cc="http://creativecommons.org/ns#"
   xmlns:rdf="http://www.w3.org/1999/02/22-rdf-syntax-ns#"
   xmlns:svg="http://www.w3.org/2000/svg"
   xmlns="http://www.w3.org/2000/svg"
   viewBox="0 0 793.70667 1122.52"
   height="1122.52"
   width="793.70667"
   xml:space="preserve"
   id="svg2"
   version="1.1"><metadata
     id="metadata8"><rdf:RDF><cc:Work
         rdf:about=""><dc:format>image/svg+xml</dc:format><dc:type
           rdf:resource="http://purl.org/dc/dcmitype/StillImage" /></cc:Work></rdf:RDF></metadata><defs
     id="defs6"><clipPath
       id="clipPath18"
       clipPathUnits="userSpaceOnUse"><path
         id="path16"
         d="M 0,841.89 H 595.28 V 0 H 0 Z" /></clipPath><clipPath
       id="clipPath50"
       clipPathUnits="userSpaceOnUse"><path
         id="path48"
         d="m 391.419,521.3 h 2.535 V 318.295 h -2.535 z" /></clipPath></defs><g
     transform="matrix(1.3333333,0,0,-1.3333333,0,1122.52)"
     id="g10"><g
       id="g12"><g
         clip-path="url(#clipPath18)"
         id="g14"><g
           transform="translate(376.4268,490.9473)"
           id="g20"><path
             id="path22"
             style="fill:#1a171b;fill-opacity:1;fill-rule:nonzero;stroke:none"
             d="m 0,0 c -27.735,-9.971 -55.573,-20.946 -77.694,-41.602 -11.947,9.527 -25.396,21.166 -39.238,28.668 -1.366,0.862 -6.245,1.355 -4.704,1.102 14.512,-8.933 29.632,-19.431 42.013,-31.185 l -1.257,-1.394 c -9.198,8.835 -18.877,14.57 -29.521,19.838 -0.564,-1.823 -1.154,-3.578 -1.73,-5.406 7.114,-2.903 13.241,-8.654 19.89,-12.983 2.889,-2.316 6.187,-4.78 6.567,-5.516 -1.648,-1.733 -3.491,-4.5 -5.353,-5.717 l 4.631,0.225 c 1.795,-0.122 2.823,3.32 4.581,1.547 -0.331,-1.608 -2.067,-2.761 -3.123,-4.138 0.306,-2.178 -0.311,-4.856 0.979,-6.596 l 6.402,4.956 c 0.353,-0.38 1.453,-1.23 1.276,-1.839 l 3.793,4.73 c 0,0 -0.672,0.16 -1.268,1.207 0,0 1.022,1.46 2.542,2.19 5.452,-4.055 9.291,-9.268 13.955,-13.933 l 0.835,0.566 c -2.756,4.373 -8.531,10.393 -12.178,14.157 l -0.065,1.328 c 13.549,11.146 28.805,18.456 44.65,24.728 l -2.278,5.866 c -17.124,-5.806 -32.84,-14.531 -47.225,-26.181 l -0.698,0.625 c 18.101,17.28 40.035,26.505 62.046,35.544 0.99,0.823 2.694,1.043 4.02,1.668 3.07,1.437 7.526,2.146 9.019,3.583 L 0,0 m -77.406,-48.296 -0.664,0.51 1.365,1.762 1.136,-1.082 z" /></g><g
           transform="translate(376.4268,490.9473)"
           id="g24"><path
             id="path26"
             style="fill:none;stroke:#1a171b;stroke-width:1.75100005;stroke-linecap:butt;stroke-linejoin:miter;stroke-miterlimit:4;stroke-dasharray:none;stroke-opacity:1"
             d="m 0,0 c -27.735,-9.971 -55.573,-20.946 -77.694,-41.602 -11.947,9.527 -25.396,21.166 -39.238,28.668 -1.366,0.862 -6.245,1.355 -4.704,1.102 14.512,-8.933 29.632,-19.431 42.013,-31.185 l -1.257,-1.394 c -9.198,8.835 -18.877,14.57 -29.521,19.838 -0.564,-1.823 -1.154,-3.578 -1.73,-5.406 7.114,-2.903 13.241,-8.654 19.89,-12.983 2.889,-2.316 6.187,-4.78 6.567,-5.516 -1.648,-1.733 -3.491,-4.5 -5.353,-5.717 l 4.631,0.225 c 1.795,-0.122 2.823,3.32 4.581,1.547 -0.331,-1.608 -2.067,-2.761 -3.123,-4.138 0.306,-2.178 -0.311,-4.856 0.979,-6.596 l 6.402,4.956 c 0.353,-0.38 1.453,-1.23 1.276,-1.839 l 3.793,4.73 c 0,0 -0.672,0.16 -1.268,1.207 0,0 1.022,1.46 2.542,2.19 5.452,-4.055 9.291,-9.268 13.955,-13.933 l 0.835,0.566 c -2.756,4.373 -8.531,10.393 -12.178,14.157 l -0.065,1.328 c 13.549,11.146 28.805,18.456 44.65,24.728 l -2.278,5.866 c -17.124,-5.806 -32.84,-14.531 -47.225,-26.181 l -0.698,0.625 c 18.101,17.28 40.035,26.505 62.046,35.544 0.99,0.823 2.694,1.043 4.02,1.668 3.07,1.437 7.526,2.146 9.019,3.583 L 0,0 m -77.406,-48.296 -0.664,0.51 1.365,1.762 1.136,-1.082 z" /></g><g
           transform="translate(375.7461,491.6392)"
           id="g28"><path
             id="path30"
             style="fill:#97be0d;fill-opacity:1;fill-rule:nonzero;stroke:none"
             d="m 0,0 c -27.745,-9.971 -55.14,-20.497 -77.264,-41.157 -11.943,9.521 -25.338,20.852 -39.178,28.36 -1.368,0.85 -7.007,1.053 -5.463,0.801 14.51,-8.928 29.891,-19.267 42.278,-31.022 l -0.782,-0.899 c -9.197,8.824 -19.358,14.564 -30,19.832 -0.57,-1.823 -1.16,-4.067 -1.723,-5.894 7.102,-2.903 13.23,-8.66 19.877,-12.989 2.896,-2.3 6.199,-4.769 6.56,-5.51 -1.646,-1.739 -3.483,-4.5 -5.353,-5.724 l 4.635,0.231 c 1.805,-0.11 2.831,3.32 4.584,1.553 -0.323,-1.619 -2.064,-2.766 -3.129,-4.143 0.309,-2.173 -0.292,-4.862 0.986,-6.597 l 6.403,4.956 c 0.351,-0.379 1.448,-1.229 1.271,-1.833 l 3.801,4.72 c 0,0 -0.679,0.164 -1.287,1.217 0,0 1.041,1.471 2.558,2.184 5.451,-4.054 9.292,-9.262 13.957,-13.943 l 0.829,0.582 c -2.76,4.373 -8.534,10.388 -12.169,14.152 l -0.063,1.322 c 13.543,11.152 28.799,18.456 44.642,24.733 l -2.283,5.872 c -17.117,-5.806 -32.849,-14.542 -47.224,-26.192 l -0.695,0.641 c 18.102,17.27 40.046,26.495 62.057,35.528 0.991,0.834 2.697,1.053 4.02,1.674 3.065,1.443 7.512,2.15 9.011,3.588 L 0,0 m -77.406,-48.302 -0.664,0.51 1.359,1.767 1.13,-1.081 z" /></g><g
           transform="translate(41.4521,449.3848)"
           id="g32"><path
             id="path34"
             style="fill:#1a171b;fill-opacity:1;fill-rule:nonzero;stroke:none"
             d="m 0,0 c 0,-3.184 -0.256,-5.423 -0.764,-6.745 -0.498,-1.312 -1.314,-2.447 -2.453,-3.408 -2.162,-1.8 -4.956,-2.7 -8.395,-2.7 -2.41,0 -4.505,0.456 -6.283,1.345 -1.77,0.9 -3.089,2.091 -3.963,3.572 -0.866,1.493 -1.299,4.144 -1.299,7.936 v 22.965 h -5.822 v -22.9 c 0,-3.259 0.21,-5.657 0.647,-7.189 0.43,-1.514 0.985,-2.81 1.648,-3.857 0.663,-1.048 1.481,-1.998 2.445,-2.849 3.187,-2.743 7.413,-4.11 12.686,-4.11 5.177,0 9.363,1.377 12.571,4.138 0.962,0.834 1.778,1.773 2.44,2.821 0.671,1.047 1.23,2.371 1.68,3.956 C 5.597,-5.45 5.824,-3.102 5.824,0 V 22.965 H 0 V 0 m 13.322,9.142 v -26.621 h 5.405 V 1.542 c 1.724,2.502 3.826,3.742 6.309,3.742 1.934,0 3.319,-0.576 4.139,-1.745 0.831,-1.169 1.242,-3.122 1.242,-5.844 v -15.174 h 5.291 v 15.234 c 0,3.243 -0.374,5.614 -1.112,7.106 -0.741,1.498 -1.832,2.684 -3.25,3.535 -1.432,0.856 -2.962,1.283 -4.623,1.283 -2.983,0 -5.65,-1.289 -7.996,-3.885 v 3.348 h -5.405 m 29.982,10.256 c -0.617,-0.631 -0.922,-1.344 -0.922,-2.151 0,-0.829 0.305,-1.559 0.922,-2.178 0.615,-0.631 1.327,-0.939 2.134,-0.939 0.872,0 1.612,0.302 2.223,0.916 0.623,0.615 0.928,1.35 0.928,2.201 0,0.867 -0.305,1.591 -0.928,2.201 -0.611,0.587 -1.351,0.894 -2.223,0.894 -0.807,0 -1.519,-0.313 -2.134,-0.944 m -0.465,-36.877 h 5.285 V 9.142 H 42.839 Z M 65.063,-7.233 57.88,9.142 H 52.119 L 64.116,-17.94 h 1.835 L 77.7,9.142 H 71.989 L 65.063,-7.233 m 38.065,3.265 c 0,4.16 -1.053,7.474 -3.153,9.938 -2.108,2.469 -4.929,3.709 -8.458,3.709 -3.672,0 -6.651,-1.267 -8.953,-3.803 -2.295,-2.541 -3.444,-5.833 -3.444,-9.894 0,-2.71 0.544,-5.092 1.641,-7.15 1.087,-2.052 2.544,-3.693 4.36,-4.917 1.814,-1.207 4.179,-1.822 7.117,-1.822 2.144,0 4.014,0.236 5.604,0.686 1.592,0.472 3.197,1.241 4.818,2.316 v 5.147 c -2.926,-2.14 -6.129,-3.21 -9.596,-3.21 -2.493,0 -4.529,0.752 -6.093,2.256 -1.57,1.509 -2.424,3.539 -2.565,6.086 h 18.722 v 0.658 M 86.887,3.385 c 1.2,1.142 2.744,1.707 4.642,1.707 1.884,0 3.391,-0.565 4.501,-1.707 1.123,-1.135 1.753,-2.754 1.887,-4.845 H 84.521 c 0.371,2.091 1.156,3.71 2.366,4.845 m 22.346,5.757 v -26.621 h 5.286 v 13.917 c 0,2.217 0.625,4.138 1.866,5.762 1.248,1.618 2.718,2.431 4.425,2.431 1.562,0 3.254,-0.867 5.093,-2.585 l 2.775,4.632 c -2.16,2.009 -4.233,3.001 -6.22,3.001 -2.551,0 -5.096,-2.057 -7.651,-6.173 L 114.519,3.04 v 6.102 h -5.286 m 26.898,-26.577 c 1.226,-0.335 2.64,-0.505 4.217,-0.505 2.684,0 4.881,0.697 6.584,2.097 1.711,1.399 2.567,3.188 2.567,5.372 0,3.04 -2.229,5.822 -6.664,8.33 l -1.882,1.071 c -1.434,0.796 -2.424,1.465 -2.992,2.03 -0.576,0.56 -0.858,1.141 -0.858,1.761 0,0.714 0.309,1.29 0.941,1.718 0.627,0.433 1.451,0.653 2.473,0.653 1.986,0 4.544,-0.938 7.665,-2.821 v 5.213 c -2.744,1.466 -5.414,2.195 -8.02,2.195 -2.514,0 -4.562,-0.641 -6.145,-1.937 -1.603,-1.289 -2.394,-2.957 -2.394,-5.004 0,-1.586 0.528,-3.04 1.585,-4.39 1.05,-1.345 3.271,-2.964 6.676,-4.852 1.703,-0.965 2.809,-1.701 3.324,-2.211 0.508,-0.516 0.763,-1.153 0.763,-1.926 0,-0.752 -0.39,-1.399 -1.185,-1.937 -0.79,-0.543 -1.731,-0.818 -2.836,-0.818 -1.055,0 -2.36,0.33 -3.922,0.982 -1.553,0.648 -3.069,1.488 -4.562,2.541 v -5.685 c 1.876,-0.911 3.431,-1.537 4.665,-1.877 M 155.7,19.398 c -0.625,-0.631 -0.93,-1.344 -0.93,-2.151 0,-0.829 0.305,-1.559 0.93,-2.178 0.604,-0.631 1.328,-0.939 2.137,-0.939 0.858,0 1.613,0.302 2.219,0.916 0.617,0.615 0.933,1.35 0.933,2.201 0,0.867 -0.316,1.591 -0.933,2.201 -0.606,0.587 -1.361,0.894 -2.219,0.894 -0.809,0 -1.533,-0.313 -2.137,-0.944 m -0.475,-36.877 h 5.293 V 9.142 h -5.293 z m 9.16,21.879 h 4.627 V -7.409 c 0,-2.409 0.105,-4.044 0.335,-4.911 0.223,-0.856 0.497,-1.554 0.821,-2.08 0.336,-0.533 0.749,-1.004 1.254,-1.433 1.601,-1.41 3.617,-2.107 6.034,-2.107 2.391,0 4.617,0.565 6.643,1.696 v 4.906 c -2.108,-1.24 -4.113,-1.86 -6.008,-1.86 -2.522,0 -3.797,1.519 -3.797,4.571 V 4.4 h 8.445 v 4.742 h -8.445 v 5.52 l -9.909,-9.74 V 4.4 m 46.236,-8.368 c 0,4.16 -1.041,7.474 -3.145,9.938 -2.11,2.469 -4.927,3.709 -8.459,3.709 -3.662,0 -6.65,-1.267 -8.944,-3.803 -2.295,-2.541 -3.446,-5.833 -3.446,-9.894 0,-2.71 0.546,-5.092 1.639,-7.15 1.089,-2.052 2.537,-3.693 4.352,-4.917 1.817,-1.207 4.196,-1.822 7.121,-1.822 2.148,0 4.013,0.236 5.6,0.686 1.598,0.472 3.205,1.241 4.828,2.316 v 5.147 c -2.938,-2.14 -6.126,-3.21 -9.603,-3.21 -2.488,0 -4.526,0.752 -6.084,2.256 -1.577,1.509 -2.423,3.539 -2.561,6.086 h 18.702 v 0.658 m -16.236,7.353 c 1.205,1.142 2.758,1.707 4.64,1.707 1.892,0 3.401,-0.565 4.522,-1.707 1.109,-1.135 1.734,-2.754 1.872,-4.845 h -13.382 c 0.355,2.091 1.145,3.71 2.348,4.845 m 4.622,20.195 -3.892,-8.687 h 3.239 l 6.566,8.687 z" /></g><g
           transform="translate(22.0264,418.6426)"
           id="g36"><path
             id="path38"
             style="fill:#1a171b;fill-opacity:1;fill-rule:nonzero;stroke:none"
             d="m 0,0 c -1.991,0.724 -3.839,1.097 -5.547,1.097 -3.653,0 -6.659,-1.212 -9.021,-3.632 -2.349,-2.421 -3.526,-5.505 -3.526,-9.259 0,-4.006 1.123,-7.194 3.368,-9.581 2.247,-2.392 5.261,-3.572 9.031,-3.572 H 5.098 V 13.796 L 0,13.796 V 0 m -3.909,-20.628 c -2.255,0 -3.814,0.148 -4.685,0.439 -0.871,0.295 -1.691,0.872 -2.466,1.717 -1.295,1.421 -1.943,3.447 -1.943,6.059 0,2.787 0.747,5.011 2.233,6.65 1.489,1.63 3.492,2.465 6.007,2.465 1.602,0 3.193,-0.4 4.763,-1.202 v -16.128 h -3.909 m 37.638,8.665 c 0,3.979 -1.016,7.14 -3.028,9.51 -2.021,2.359 -4.727,3.55 -8.117,3.55 -3.515,0 -6.379,-1.218 -8.588,-3.655 -2.206,-2.43 -3.312,-5.591 -3.312,-9.476 0,-2.596 0.53,-4.873 1.576,-6.849 1.044,-1.971 2.44,-3.54 4.179,-4.703 1.735,-1.164 4.014,-1.751 6.83,-1.751 2.051,0 3.844,0.22 5.371,0.664 1.53,0.434 3.065,1.175 4.631,2.217 v 4.917 c -2.822,-2.064 -5.9,-3.089 -9.229,-3.089 -2.385,0 -4.332,0.724 -5.842,2.173 -1.504,1.448 -2.329,3.396 -2.45,5.855 h 17.979 v 0.637 m -15.602,7.024 c 1.165,1.092 2.656,1.641 4.469,1.641 1.817,0 3.263,-0.549 4.338,-1.641 1.082,-1.092 1.683,-2.64 1.816,-4.654 H 15.865 c 0.345,2.014 1.102,3.562 2.262,4.654 M 68.594,-13.4 56.945,13.796 h -5.58 l 16.657,-38.902 h 1.295 l 16.35,38.902 H 80.112 L 68.594,-13.4 m 34.448,8.181 c -0.125,0.769 -0.401,1.531 -0.85,2.305 -0.447,0.763 -0.944,1.377 -1.504,1.85 -1.658,1.437 -3.875,2.161 -6.634,2.161 -3.685,0 -6.503,-1.153 -8.469,-3.451 v -5.504 c 2.609,2.837 5.289,4.253 8.051,4.253 3.07,0 4.608,-1.542 4.608,-4.622 v -1.366 l -6.463,-2.222 c -2.127,-0.741 -3.769,-1.746 -4.928,-3.012 -1.155,-1.269 -1.732,-2.712 -1.732,-4.319 0,-1.767 0.595,-3.25 1.779,-4.429 1.182,-1.169 2.664,-1.762 4.443,-1.762 2.421,0 4.713,0.834 6.855,2.503 0.393,-1.696 1.661,-2.547 3.812,-2.547 0.754,0 1.476,0.138 2.164,0.406 0.686,0.264 1.613,0.769 2.751,1.504 v 3.074 c -1.287,-0.907 -2.222,-1.35 -2.825,-1.35 -0.59,0 -0.873,0.433 -0.873,1.305 v 10.849 c 0,2.147 -0.072,3.606 -0.185,4.374 m -9.264,-16.644 c -1.077,0 -1.955,0.329 -2.626,1.005 -0.677,0.663 -1.015,1.519 -1.015,2.585 0,1.042 0.357,1.903 1.063,2.595 0.722,0.697 1.933,1.388 3.65,2.069 l 3.394,1.322 v -7.607 c -1.369,-1.322 -2.866,-1.969 -4.466,-1.969 m 17.664,-3.084 h 5.059 v 38.743 h -5.059 z m 33.956,12.984 c 0,3.979 -1.014,7.14 -3.033,9.51 -2.024,2.359 -4.727,3.55 -8.123,3.55 -3.513,0 -6.383,-1.218 -8.58,-3.655 -2.205,-2.43 -3.309,-5.591 -3.309,-9.476 0,-2.596 0.52,-4.873 1.565,-6.849 1.051,-1.971 2.445,-3.54 4.186,-4.703 1.735,-1.164 4.016,-1.751 6.824,-1.751 2.06,0 3.847,0.22 5.381,0.664 1.521,0.434 3.062,1.175 4.62,2.217 v 4.917 c -2.817,-2.064 -5.886,-3.089 -9.221,-3.089 -2.388,0 -4.335,0.724 -5.837,2.173 -1.517,1.448 -2.334,3.396 -2.465,5.855 h 17.992 v 0.637 m -15.604,7.024 c 1.157,1.092 2.645,1.641 4.469,1.641 1.811,0 3.262,-0.549 4.34,-1.641 1.076,-1.092 1.679,-2.64 1.806,-4.654 H 127.52 c 0.355,2.014 1.113,3.562 2.274,4.654 m 21.259,5.499 v -25.507 h 5.181 v 18.252 c 1.652,2.382 3.677,3.59 6.05,3.59 1.872,0 3.192,-0.566 3.99,-1.68 0.782,-1.131 1.189,-2.997 1.189,-5.61 v -14.552 h 5.055 v 14.602 c 0,3.107 -0.361,5.384 -1.066,6.816 -0.716,1.438 -1.754,2.563 -3.111,3.386 -1.373,0.829 -2.85,1.24 -4.434,1.24 -2.857,0 -5.423,-1.251 -7.673,-3.743 V 0.56 h -5.181 m 40.804,-21.265 c -2.685,0 -4.825,0.768 -6.404,2.309 -1.584,1.549 -2.368,3.624 -2.368,6.235 0,2.492 0.726,4.538 2.194,6.14 1.46,1.603 3.33,2.416 5.606,2.416 2.194,0 4.573,-0.818 7.128,-2.437 v 5.372 c -1.543,0.681 -2.83,1.142 -3.88,1.394 -1.035,0.253 -2.219,0.373 -3.536,0.373 -3.784,0 -6.815,-1.24 -9.141,-3.693 -2.308,-2.464 -3.477,-5.707 -3.477,-9.729 0,-3.985 1.195,-7.161 3.57,-9.538 2.383,-2.37 5.565,-3.55 9.574,-3.55 2.41,0 4.904,0.472 7.428,1.416 v 4.993 c -2.515,-1.142 -4.742,-1.701 -6.694,-1.701 m 12.666,31.077 c -0.598,-0.604 -0.886,-1.285 -0.886,-2.07 0,-0.795 0.288,-1.492 0.886,-2.101 0.601,-0.598 1.29,-0.9 2.062,-0.9 0.835,0 1.546,0.296 2.137,0.888 0.597,0.593 0.901,1.296 0.901,2.113 0,0.84 -0.304,1.537 -0.901,2.119 -0.591,0.576 -1.302,0.867 -2.137,0.867 -0.772,0 -1.461,-0.302 -2.062,-0.916 m -0.458,-35.319 h 5.05 V 0.56 h -5.05 z m 33.789,12.984 c 0,3.979 -1.017,7.14 -3.031,9.51 -2.028,2.359 -4.722,3.55 -8.122,3.55 -3.515,0 -6.378,-1.218 -8.585,-3.655 -2.202,-2.43 -3.303,-5.591 -3.303,-9.476 0,-2.596 0.527,-4.873 1.57,-6.849 1.05,-1.971 2.438,-3.54 4.177,-4.703 1.747,-1.164 4.008,-1.751 6.831,-1.751 2.066,0 3.843,0.22 5.374,0.664 1.526,0.434 3.069,1.175 4.618,2.217 v 4.917 c -2.808,-2.064 -5.883,-3.089 -9.21,-3.089 -2.395,0 -4.339,0.724 -5.847,2.173 -1.513,1.448 -2.327,3.396 -2.458,5.855 h 17.986 v 0.637 m -15.592,7.024 c 1.155,1.092 2.64,1.641 4.46,1.641 1.816,0 3.261,-0.549 4.343,-1.641 1.079,-1.092 1.678,-2.64 1.806,-4.654 H 219.99 c 0.344,2.014 1.099,3.562 2.272,4.654 m 21.259,5.499 v -25.507 h 5.169 v 18.252 c 1.664,2.382 3.673,3.59 6.054,3.59 1.866,0 3.2,-0.566 3.99,-1.68 0.782,-1.131 1.183,-2.997 1.183,-5.61 v -14.552 h 5.055 v 14.602 c 0,3.107 -0.348,5.384 -1.067,6.816 -0.708,1.438 -1.745,2.563 -3.117,3.386 -1.367,0.829 -2.841,1.24 -4.426,1.24 -2.869,0 -5.421,-1.251 -7.672,-3.743 V 0.56 h -5.169 m 28.255,0 v -25.507 h 5.164 v 18.252 c 1.662,2.382 3.68,3.59 6.055,3.59 1.86,0 3.193,-0.566 3.987,-1.68 0.798,-1.131 1.199,-2.997 1.199,-5.61 v -14.552 h 5.048 v 14.602 c 0,3.107 -0.359,5.384 -1.064,6.816 -0.714,1.438 -1.739,2.563 -3.123,3.386 -1.366,0.829 -2.828,1.24 -4.434,1.24 -2.848,0 -5.416,-1.251 -7.668,-3.743 V 0.56 h -5.164 m 50,-12.523 c 0,3.979 -1.004,7.14 -3.029,9.51 -2.019,2.359 -4.73,3.55 -8.122,3.55 -3.522,0 -6.374,-1.218 -8.583,-3.655 -2.205,-2.43 -3.309,-5.591 -3.309,-9.476 0,-2.596 0.522,-4.873 1.573,-6.849 1.048,-1.971 2.436,-3.54 4.184,-4.703 1.742,-1.164 4.012,-1.751 6.822,-1.751 2.057,0 3.846,0.22 5.376,0.664 1.538,0.434 3.069,1.175 4.627,2.217 v 4.917 c -2.809,-2.064 -5.893,-3.089 -9.225,-3.089 -2.384,0 -4.335,0.724 -5.838,2.173 -1.509,1.448 -2.321,3.396 -2.465,5.855 h 17.989 v 0.637 m -15.595,7.024 c 1.158,1.092 2.65,1.641 4.464,1.641 1.822,0 3.259,-0.549 4.332,-1.641 1.081,-1.092 1.684,-2.64 1.825,-4.654 h -12.905 c 0.363,2.014 1.12,3.562 2.284,4.654 m 24.626,-19.992 c 1.171,-0.324 2.52,-0.482 4.03,-0.482 2.574,0 4.676,0.675 6.3,2.014 1.634,1.338 2.458,3.056 2.458,5.153 0,2.919 -2.123,5.586 -6.371,7.989 l -1.805,1.031 c -1.369,0.758 -2.327,1.406 -2.87,1.944 -0.541,0.543 -0.81,1.102 -0.81,1.701 0,0.681 0.305,1.234 0.908,1.657 0.601,0.411 1.386,0.626 2.371,0.626 1.91,0 4.348,-0.911 7.342,-2.705 v 4.987 c -2.636,1.406 -5.194,2.113 -7.685,2.113 -2.404,0 -4.365,-0.625 -5.886,-1.86 -1.525,-1.246 -2.282,-2.842 -2.282,-4.813 0,-1.525 0.493,-2.919 1.504,-4.209 1.009,-1.278 3.133,-2.837 6.386,-4.653 1.617,-0.927 2.676,-1.641 3.172,-2.124 0.494,-0.494 0.731,-1.114 0.731,-1.855 0,-0.719 -0.374,-1.344 -1.134,-1.86 -0.76,-0.516 -1.657,-0.78 -2.72,-0.78 -1.008,0 -2.26,0.308 -3.747,0.933 -1.487,0.621 -2.93,1.433 -4.351,2.427 v -5.439 c 1.777,-0.873 3.267,-1.47 4.459,-1.795" /></g><g
           transform="translate(20.9175,376.7275)"
           id="g40"><path
             id="path42"
             style="fill:#1a171b;fill-opacity:1;fill-rule:nonzero;stroke:none"
             d="m 0,0 c 0,2.606 -0.656,4.682 -1.979,6.239 -1.324,1.537 -3.094,2.317 -5.312,2.317 -2.301,0 -4.188,-0.791 -5.629,-2.387 -1.439,-1.592 -2.165,-3.666 -2.165,-6.213 0,-1.701 0.345,-3.193 1.026,-4.489 0.687,-1.289 1.598,-2.316 2.741,-3.072 1.148,-0.768 2.631,-1.158 4.487,-1.158 1.342,0 2.512,0.153 3.521,0.439 0.998,0.29 2.008,0.768 3.022,1.448 v 3.222 c -1.84,-1.334 -3.861,-2.003 -6.05,-2.003 -1.558,0 -2.841,0.466 -3.832,1.421 -0.993,0.944 -1.534,2.211 -1.616,3.814 L 0,-0.422 V 0 m -10.236,4.609 c 0.765,0.72 1.741,1.077 2.938,1.077 1.194,0 2.147,-0.357 2.856,-1.077 0.697,-0.713 1.097,-1.739 1.189,-3.066 h -8.469 c 0.231,1.327 0.73,2.353 1.486,3.066 M 0.706,5.264 h 2.911 v -7.426 c 0,-1.52 0.074,-2.546 0.207,-3.089 0.14,-0.538 0.312,-0.972 0.523,-1.307 0.201,-0.339 0.466,-0.635 0.781,-0.906 1.009,-0.888 2.264,-1.332 3.783,-1.332 1.506,0 2.902,0.357 4.168,1.069 v 3.074 c -1.32,-0.78 -2.585,-1.163 -3.78,-1.163 -1.59,0 -2.385,0.96 -2.385,2.875 v 8.205 h 5.325 V 8.237 H 6.914 v 3.462 L 0.706,5.587 V 5.264 m 34.755,2.611 c -1.309,0.478 -2.521,0.724 -3.63,0.724 -2.395,0 -4.371,-0.801 -5.914,-2.398 -1.542,-1.58 -2.314,-3.605 -2.314,-6.069 0,-2.628 0.738,-4.725 2.207,-6.288 1.466,-1.565 3.443,-2.344 5.913,-2.344 H 38.79 V 16.891 H 35.461 V 7.875 M 32.905,-5.657 c -1.47,0 -2.488,0.088 -3.057,0.291 -0.572,0.197 -1.112,0.565 -1.611,1.13 -0.854,0.927 -1.273,2.255 -1.273,3.978 0,1.828 0.491,3.277 1.46,4.358 0.97,1.081 2.281,1.618 3.925,1.618 1.046,0 2.088,-0.258 3.112,-0.779 V -5.657 H 32.905 M 56.571,-8.5 V 8.237 H 53.274 V -3.704 c -1.122,-1.542 -2.471,-2.311 -4.059,-2.311 -1.273,0 -2.169,0.347 -2.68,1.049 -0.506,0.691 -0.754,1.921 -0.754,3.671 v 9.532 h -3.303 v -9.592 c 0,-2.097 0.226,-3.594 0.692,-4.495 0.453,-0.91 1.134,-1.624 2.029,-2.151 0.893,-0.52 1.877,-0.795 2.933,-0.795 0.908,0 1.81,0.225 2.717,0.652 0.907,0.429 1.719,1.033 2.425,1.806 V -8.5 h 3.297 M 88.365,5.905 H 74.147 V 16.891 H 70.492 V -8.5 h 3.655 V 2.546 H 88.365 V -8.5 h 3.65 v 25.391 h -3.65 V 5.905 m 18.968,-1.487 c -0.079,0.505 -0.265,1.004 -0.557,1.504 -0.292,0.505 -0.614,0.91 -0.984,1.218 -1.086,0.949 -2.535,1.416 -4.334,1.416 -2.41,0 -4.262,-0.752 -5.544,-2.262 v -3.61 c 1.704,1.849 3.458,2.776 5.258,2.776 2.007,0 3.016,-1.015 3.016,-3.023 V 1.543 L 99.951,0.094 c -1.39,-0.484 -2.467,-1.136 -3.223,-1.97 -0.757,-0.835 -1.134,-1.778 -1.134,-2.832 0,-1.158 0.388,-2.124 1.166,-2.897 0.776,-0.768 1.75,-1.158 2.919,-1.158 1.592,0 3.098,0.548 4.509,1.629 0.251,-1.081 1.084,-1.629 2.502,-1.629 0.487,0 0.965,0.092 1.414,0.263 0.455,0.158 1.049,0.482 1.798,0.944 v 1.987 c -0.847,-0.566 -1.473,-0.862 -1.868,-0.862 -0.392,0 -0.58,0.285 -0.58,0.856 v 7.118 c 0,1.41 -0.043,2.364 -0.121,2.875 m -6.066,-10.915 c -0.702,0 -1.275,0.214 -1.715,0.658 -0.444,0.428 -0.664,1.005 -0.664,1.701 0,0.67 0.229,1.241 0.693,1.697 0.47,0.455 1.268,0.905 2.39,1.349 l 2.217,0.862 v -4.978 c -0.896,-0.861 -1.872,-1.289 -2.921,-1.289 m 11.001,21.154 c -0.39,-0.389 -0.577,-0.844 -0.577,-1.354 0,-0.528 0.187,-0.978 0.577,-1.372 0.388,-0.396 0.836,-0.593 1.346,-0.593 0.548,0 1.01,0.197 1.394,0.576 0.395,0.39 0.588,0.857 0.588,1.389 0,0.543 -0.193,1.004 -0.588,1.383 -0.384,0.378 -0.846,0.57 -1.394,0.57 -0.51,0 -0.958,-0.208 -1.346,-0.599 M 111.972,-8.5 h 3.305 V 8.237 h -3.305 z m 7.206,16.737 V -8.5 h 3.394 V 3.425 c 1.091,1.575 2.425,2.353 3.991,2.353 1.229,0 2.102,-0.367 2.628,-1.096 0.52,-0.736 0.778,-1.959 0.778,-3.661 V -8.5 h 3.296 v 9.564 c 0,2.042 -0.234,3.524 -0.699,4.468 -0.468,0.939 -1.154,1.679 -2.044,2.216 -0.898,0.538 -1.871,0.808 -2.907,0.808 -1.885,0 -3.565,-0.824 -5.043,-2.481 v 2.162 h -3.394 m 28.594,-3.819 c -0.075,0.505 -0.254,1.004 -0.549,1.504 -0.298,0.505 -0.619,0.91 -0.983,1.218 -1.094,0.949 -2.536,1.416 -4.338,1.416 -2.41,0 -4.259,-0.752 -5.544,-2.262 v -3.61 c 1.699,1.849 3.465,2.776 5.259,2.776 2.005,0 3.009,-1.015 3.009,-3.023 V 1.543 l -4.23,-1.449 c -1.397,-0.484 -2.475,-1.136 -3.228,-1.97 -0.756,-0.835 -1.131,-1.778 -1.131,-2.832 0,-1.158 0.393,-2.124 1.164,-2.897 0.775,-0.768 1.755,-1.158 2.918,-1.158 1.601,0 3.095,0.548 4.507,1.629 0.255,-1.081 1.085,-1.629 2.509,-1.629 0.487,0 0.953,0.092 1.414,0.263 0.459,0.158 1.055,0.482 1.795,0.944 v 1.987 c -0.84,-0.566 -1.464,-0.862 -1.872,-0.862 -0.384,0 -0.582,0.285 -0.582,0.856 v 7.118 c 0,1.41 -0.035,2.364 -0.118,2.875 m -6.063,-10.915 c -0.703,0 -1.276,0.214 -1.713,0.658 -0.442,0.428 -0.668,1.005 -0.668,1.701 0,0.67 0.238,1.241 0.701,1.697 0.466,0.455 1.262,0.905 2.392,1.349 l 2.205,0.862 v -4.978 c -0.897,-0.861 -1.866,-1.289 -2.917,-1.289 M 166.231,-8.5 V 8.237 h -3.292 V -3.704 c -1.127,-1.542 -2.475,-2.311 -4.072,-2.311 -1.264,0 -2.158,0.347 -2.667,1.049 -0.505,0.691 -0.758,1.921 -0.758,3.671 v 9.532 h -3.302 v -9.592 c 0,-2.097 0.226,-3.594 0.684,-4.495 0.464,-0.91 1.14,-1.624 2.035,-2.151 0.897,-0.52 1.876,-0.795 2.933,-0.795 0.906,0 1.811,0.225 2.722,0.652 0.906,0.429 1.713,1.033 2.425,1.806 V -8.5 h 3.292 m 1.647,13.764 h 2.909 v -7.426 c 0,-1.52 0.061,-2.546 0.209,-3.089 0.138,-0.538 0.314,-0.972 0.508,-1.307 0.221,-0.339 0.479,-0.635 0.788,-0.906 1.013,-0.888 2.277,-1.332 3.794,-1.332 1.505,0 2.891,0.357 4.171,1.069 v 3.074 c -1.329,-0.78 -2.595,-1.163 -3.78,-1.163 -1.594,0 -2.398,0.96 -2.398,2.875 v 8.205 h 5.336 v 2.973 h -5.336 v 3.462 L 167.878,5.587 V 5.264 m 12.877,-7.305 h 9.047 v 3.557 h -9.047 z m 26.366,-3.392 c -2.958,0 -5.378,0.9 -7.273,2.69 -1.882,1.8 -2.83,4.094 -2.83,6.87 0,2.771 0.964,5.081 2.885,6.914 1.926,1.833 4.337,2.75 7.259,2.75 2.837,0 5.739,-0.852 8.718,-2.552 v 3.918 c -3.262,1.4 -6.223,2.097 -8.89,2.097 -3.877,0 -7.124,-1.257 -9.766,-3.787 -2.632,-2.525 -3.957,-5.636 -3.957,-9.34 0,-2.321 0.573,-4.489 1.729,-6.492 1.148,-2.003 2.713,-3.573 4.686,-4.714 1.986,-1.136 4.389,-1.717 7.223,-1.717 3.496,0 6.566,0.734 9.237,2.2 v 4.011 c -2.937,-1.897 -5.943,-2.848 -9.021,-2.848 m 22.81,9.851 c -0.085,0.505 -0.269,1.004 -0.557,1.504 -0.288,0.505 -0.62,0.91 -0.973,1.218 -1.099,0.949 -2.543,1.416 -4.344,1.416 -2.411,0 -4.259,-0.752 -5.54,-2.262 v -3.61 c 1.701,1.849 3.447,2.776 5.261,2.776 2.002,0 3.009,-1.015 3.009,-3.023 V 1.543 l -4.231,-1.449 c -1.4,-0.484 -2.471,-1.136 -3.232,-1.97 -0.753,-0.835 -1.13,-1.778 -1.13,-2.832 0,-1.158 0.383,-2.124 1.161,-2.897 0.783,-0.768 1.759,-1.158 2.928,-1.158 1.594,0 3.087,0.548 4.504,1.629 0.251,-1.081 1.085,-1.629 2.495,-1.629 0.495,0 0.97,0.092 1.419,0.263 0.45,0.158 1.055,0.482 1.801,0.944 v 1.987 c -0.849,-0.566 -1.464,-0.862 -1.87,-0.862 -0.392,0 -0.579,0.285 -0.579,0.856 v 7.118 c 0,1.41 -0.045,2.364 -0.122,2.875 m -6.063,-10.915 c -0.706,0 -1.277,0.214 -1.713,0.658 -0.45,0.428 -0.664,1.005 -0.664,1.701 0,0.67 0.231,1.241 0.698,1.697 0.463,0.455 1.258,0.905 2.386,1.349 l 2.212,0.862 v -4.978 c -0.891,-0.861 -1.872,-1.289 -2.919,-1.289 m 28.468,12.215 c 1.07,0 1.889,-0.367 2.452,-1.119 0.573,-0.73 0.853,-1.789 0.853,-3.189 V -8.5 h 3.296 v 9.851 c 0,2.436 -0.519,4.242 -1.567,5.426 -1.049,1.191 -2.384,1.779 -3.997,1.779 -1.926,0 -3.772,-1.004 -5.541,-3.024 -1.165,2.02 -2.811,3.024 -4.943,3.024 -1.616,0 -3.26,-0.835 -4.952,-2.536 v 2.217 h -3.303 V -8.5 h 3.303 V 3.639 c 0.752,0.801 1.407,1.361 1.98,1.668 0.573,0.318 1.209,0.471 1.906,0.471 1.241,0 2.103,-0.367 2.607,-1.096 0.505,-0.736 0.75,-2.026 0.75,-3.881 V -8.5 h 3.326 V 3.639 c 1.186,1.388 2.458,2.079 3.83,2.079 m 10.289,-13.291 c 0.697,-0.351 1.649,-0.642 2.84,-0.872 1.198,-0.232 2.326,-0.351 3.407,-0.351 2.689,0 4.832,0.801 6.429,2.398 1.61,1.591 2.41,3.737 2.41,6.419 0,2.514 -0.669,4.567 -2.015,6.175 -1.341,1.597 -3.078,2.403 -5.195,2.403 -1.629,0 -3.162,-0.533 -4.59,-1.579 v 9.871 h -3.286 V -7.573 m 7.044,13.066 c 1.4,0 2.515,-0.52 3.384,-1.569 0.87,-1.037 1.302,-2.387 1.302,-4.044 0,-1.631 -0.467,-2.97 -1.397,-4.012 -0.919,-1.037 -2.112,-1.558 -3.575,-1.558 -1.189,0 -2.342,0.165 -3.472,0.509 v 9.034 c 1.277,1.097 2.528,1.64 3.758,1.64 m 11.106,2.744 V -8.5 h 3.329 v 8.741 c 0,1.395 0.397,2.607 1.18,3.628 0.773,1.021 1.707,1.526 2.771,1.526 0.977,0 2.039,-0.549 3.199,-1.658 L 293,6.668 c -1.362,1.257 -2.666,1.888 -3.917,1.888 -1.596,0 -3.193,-1.289 -4.795,-3.864 l -0.184,-0.301 v 3.846 h -3.329 M 308.46,0 c 0,2.606 -0.664,4.682 -1.988,6.239 -1.318,1.537 -3.085,2.317 -5.307,2.317 -2.313,0 -4.192,-0.791 -5.63,-2.387 -1.444,-1.592 -2.162,-3.666 -2.162,-6.213 0,-1.701 0.329,-3.193 1.026,-4.489 0.685,-1.289 1.588,-2.316 2.735,-3.072 1.139,-0.768 2.642,-1.158 4.484,-1.158 1.344,0 2.51,0.153 3.52,0.439 0.999,0.29 2.003,0.768 3.035,1.448 v 3.222 c -1.85,-1.334 -3.867,-2.003 -6.058,-2.003 -1.571,0 -2.843,0.466 -3.842,1.421 -0.99,0.944 -1.528,2.211 -1.613,3.814 h 11.8 V 0 m -10.251,4.609 c 0.783,0.72 1.746,1.077 2.95,1.077 1.182,0 2.13,-0.357 2.842,-1.077 0.709,-0.713 1.112,-1.739 1.194,-3.066 h -8.464 c 0.23,1.327 0.724,2.353 1.478,3.066 m 2.912,12.705 -2.458,-5.488 h 2.042 l 4.109,5.488 h -3.693 m 12.572,-25.787 c 0.779,-0.214 1.663,-0.323 2.656,-0.323 1.691,0 3.057,0.444 4.13,1.322 1.072,0.878 1.604,1.997 1.604,3.364 0,1.921 -1.382,3.666 -4.164,5.246 l -1.185,0.67 c -0.906,0.493 -1.534,0.917 -1.891,1.273 -0.365,0.346 -0.547,0.725 -0.547,1.114 0,0.444 0.202,0.807 0.593,1.081 0.393,0.275 0.905,0.412 1.559,0.412 1.249,0 2.865,-0.593 4.829,-1.779 v 3.271 c -1.723,0.917 -3.404,1.378 -5.037,1.378 -1.581,0 -2.863,-0.401 -3.869,-1.207 -0.996,-0.824 -1.498,-1.867 -1.498,-3.156 0,-0.994 0.336,-1.905 0.993,-2.76 0.664,-0.835 2.057,-1.85 4.195,-3.046 1.063,-0.604 1.764,-1.065 2.083,-1.388 0.318,-0.318 0.48,-0.726 0.48,-1.213 0,-0.473 -0.242,-0.884 -0.741,-1.224 -0.497,-0.34 -1.084,-0.504 -1.778,-0.504 -0.672,0 -1.495,0.197 -2.467,0.603 -0.982,0.401 -1.929,0.927 -2.858,1.591 v -3.557 c 1.174,-0.57 2.144,-0.959 2.913,-1.168 m 11.62,23.13 c -0.387,-0.389 -0.59,-0.844 -0.59,-1.354 0,-0.528 0.203,-0.978 0.59,-1.372 0.393,-0.396 0.837,-0.593 1.348,-0.593 0.548,0 1.009,0.197 1.393,0.576 0.39,0.39 0.587,0.857 0.587,1.389 0,0.543 -0.197,1.004 -0.587,1.383 -0.384,0.378 -0.845,0.57 -1.393,0.57 -0.511,0 -0.955,-0.208 -1.348,-0.599 M 325.022,-8.5 h 3.296 V 8.237 h -3.296 z m 9.508,0.027 c 0.773,-0.214 1.654,-0.323 2.639,-0.323 1.688,0 3.074,0.444 4.138,1.322 1.075,0.878 1.603,1.997 1.603,3.364 0,1.921 -1.386,3.666 -4.163,5.246 l -1.194,0.67 c -0.886,0.493 -1.525,0.917 -1.876,1.273 -0.363,0.346 -0.549,0.725 -0.549,1.114 0,0.444 0.198,0.807 0.601,1.081 0.375,0.275 0.902,0.412 1.55,0.412 1.252,0 2.859,-0.593 4.829,-1.779 v 3.271 c -1.723,0.917 -3.4,1.378 -5.031,1.378 -1.581,0 -2.876,-0.401 -3.875,-1.207 -0.998,-0.824 -1.501,-1.867 -1.501,-3.156 0,-0.994 0.329,-1.905 0.996,-2.76 0.664,-0.835 2.05,-1.85 4.192,-3.046 1.069,-0.604 1.765,-1.065 2.074,-1.388 0.341,-0.318 0.495,-0.726 0.495,-1.213 0,-0.473 -0.245,-0.884 -0.747,-1.224 -0.504,-0.34 -1.091,-0.504 -1.789,-0.504 -0.653,0 -1.476,0.197 -2.447,0.603 -0.977,0.401 -1.934,0.927 -2.873,1.591 v -3.557 c 1.178,-0.57 2.154,-0.959 2.928,-1.168" /></g><g
           id="g44"><g
             id="g46" /><g
             id="g58"><g
               style="opacity:0.83000201"
               id="g56"
               clip-path="url(#clipPath50)"><g
                 id="g54"
                 transform="translate(392.6865,318.2949)"><path
                   id="path52"
                   style="fill:none;stroke:#a0a5a9;stroke-width:2.53600001;stroke-linecap:butt;stroke-linejoin:miter;stroke-miterlimit:4;stroke-dasharray:none;stroke-opacity:1"
                   d="M 0,0 V 203.005" /></g></g></g></g><path
           id="path60"
           style="fill:#ffe618;fill-opacity:1;fill-rule:nonzero;stroke:none"
           d="M 421.469,326.667 H 534.135 V 431.733 H 421.469 Z" /><g
           transform="translate(510.9863,479.4248)"
           id="g62"><path
             id="path64"
             style="fill:none;stroke:#ffffff;stroke-width:6.4000001;stroke-linecap:butt;stroke-linejoin:miter;stroke-miterlimit:4;stroke-dasharray:none;stroke-opacity:1"
             d="M 0,0 50.464,9.675 0,-74.302 Z" /></g><g
           transform="translate(464.665,498.0928)"
           id="g66"><path
             id="path68"
             style="fill:none;stroke:#ffffff;stroke-width:6.4000001;stroke-linecap:butt;stroke-linejoin:miter;stroke-miterlimit:4;stroke-dasharray:none;stroke-opacity:1"
             d="M 0,0 -7.938,-8.993" /></g><g
           transform="translate(449.8037,481.501)"
           id="g70"><path
             id="path72"
             style="fill:none;stroke:#ffffff;stroke-width:6.4000001;stroke-linecap:butt;stroke-linejoin:miter;stroke-miterlimit:4;stroke-dasharray:none;stroke-opacity:1"
             d="m 0,0 c 0,0 -29.021,-33.189 -33.521,-40.096 -4.483,-6.903 -4.137,-11.753 -3.1,-13.124 1.029,-1.382 7.6,0.346 14.161,5.87 6.564,5.534 53.578,46.665 53.578,46.665 L 19.364,-54.268 5.191,-38.71 95.05,42.164 62.911,10.031 c 0,0 -9.675,-11.063 -15.897,-21.777 -7.152,-12.307 -10.723,-23.164 -10.723,-23.164 0,0 -4.489,-12.089 1.394,-16.252 5.872,-4.136 21.772,4.511 21.772,4.511 l 74.306,38.355" /></g><g
           transform="translate(487.8223,484.6094)"
           id="g74"><path
             id="path76"
             style="fill:none;stroke:#ffffff;stroke-width:6.4000001;stroke-linecap:butt;stroke-linejoin:miter;stroke-miterlimit:4;stroke-dasharray:none;stroke-opacity:1"
             d="M 0,0 76.038,11.755" /></g><g
           transform="translate(570.4268,476.3105)"
           id="g78"><path
             id="path80"
             style="fill:none;stroke:#ffffff;stroke-width:6.4000001;stroke-linecap:butt;stroke-linejoin:miter;stroke-miterlimit:4;stroke-dasharray:none;stroke-opacity:1"
             d="M 0,0 2.424,-19.702 20.383,0 Z" /></g><g
           transform="translate(510.9863,479.4248)"
           id="g82"><path
             id="path84"
             style="fill:#e42325;fill-opacity:1;fill-rule:nonzero;stroke:none"
             d="M 0,0 50.464,9.675 0,-74.302 Z" /></g><g
           transform="translate(505.8086,432.772)"
           id="g86"><path
             id="path88"
             style="fill:none;stroke:#ffffff;stroke-width:5.5999999;stroke-linecap:butt;stroke-linejoin:miter;stroke-miterlimit:4;stroke-dasharray:none;stroke-opacity:1"
             d="M 0,0 38.707,20.382" /></g><g
           transform="translate(570.4268,476.3105)"
           id="g90"><path
             id="path92"
             style="fill:#164d99;fill-opacity:1;fill-rule:nonzero;stroke:none"
             d="M 0,0 2.424,-19.702 20.383,0 Z" /></g><g
           transform="translate(464.665,498.0928)"
           id="g94"><path
             id="path96"
             style="fill:none;stroke:#164d99;stroke-width:3.20000005;stroke-linecap:butt;stroke-linejoin:miter;stroke-miterlimit:4;stroke-dasharray:none;stroke-opacity:1"
             d="M 0,0 -7.938,-8.993" /></g><g
           transform="translate(447.8643,479.8594)"
           id="g98"><path
             id="path100"
             style="fill:none;stroke:#164d99;stroke-width:3.20000005;stroke-linecap:butt;stroke-linejoin:miter;stroke-miterlimit:4;stroke-dasharray:none;stroke-opacity:1"
             d="m 0,0 c 0,0 -29.032,-33.177 -33.521,-40.089 -4.492,-6.907 -4.146,-11.749 -3.098,-13.13 1.015,-1.385 7.587,0.35 14.156,5.872 6.568,5.532 53.576,46.667 53.576,46.667 L 19.358,-54.249 5.183,-38.701 95.047,42.177 62.909,10.033 c 0,0 -9.681,-11.068 -15.894,-21.773 -7.156,-12.312 -10.735,-23.156 -10.735,-23.156 0,0 -4.484,-12.1 1.399,-16.252 5.869,-4.154 21.774,4.498 21.774,4.498 l 74.295,38.361" /></g><g
           transform="translate(487.8223,484.6094)"
           id="g102"><path
             id="path104"
             style="fill:none;stroke:#164d99;stroke-width:3.20000005;stroke-linecap:butt;stroke-linejoin:miter;stroke-miterlimit:4;stroke-dasharray:none;stroke-opacity:1"
             d="M 0,0 76.038,11.755" /></g><g
           transform="translate(440.6514,338.4248)"
           id="g106"><path
             id="path108"
             style="fill:#e42325;fill-opacity:1;fill-rule:nonzero;stroke:none"
             d="M 0,0 12.473,2.387 0,-18.373 Z" /></g><path
           id="path110"
           style="fill:#164d99;fill-opacity:1;fill-rule:nonzero;stroke:none"
           d="m 421.67,382.125 h 0.869 v -9.148 h -0.869 z" /><g
           transform="translate(434.2744,382.4648)"
           id="g112"><path
             id="path114"
             style="fill:#164d99;fill-opacity:1;fill-rule:nonzero;stroke:none"
             d="M 0,0 5.342,-7.287 V -0.34 H 6.179 V -9.845 L 0.832,-2.617 V -9.488 L 0,-9.488 Z" /></g><g
           transform="translate(456.2529,375.5508)"
           id="g116"><path
             id="path118"
             style="fill:#164d99;fill-opacity:1;fill-rule:nonzero;stroke:none"
             d="m 0,0 c 0,-1.671 -0.929,-2.805 -2.335,-2.805 -1.149,0 -1.971,0.769 -2.239,2.127 l 0.782,0.48 c 0.223,-1.119 0.714,-1.687 1.457,-1.687 0.878,0 1.468,0.71 1.468,1.704 0,0.817 -0.391,1.424 -1.151,1.832 l -0.878,0.473 c -0.972,0.513 -1.445,1.3 -1.445,2.411 0,1.284 0.842,2.264 2.055,2.264 0.887,0 1.534,-0.484 1.896,-1.391 L -1.108,4.832 c -0.317,0.694 -0.711,1.051 -1.233,1.051 -0.67,0 -1.117,-0.546 -1.117,-1.334 0,-0.65 0.321,-1.114 0.987,-1.465 L -1.438,2.502 C -0.472,1.992 0,1.13 0,0" /></g><g
           transform="translate(468.6436,381.0771)"
           id="g120"><path
             id="path122"
             style="fill:#164d99;fill-opacity:1;fill-rule:nonzero;stroke:none"
             d="M 0,0 H -2.058 V 1.048 H 2.936 V 0 H 0.896 V -8.101 H 0 Z" /></g><path
           id="path124"
           style="fill:#164d99;fill-opacity:1;fill-rule:nonzero;stroke:none"
           d="m 482.538,382.125 h 0.862 v -9.148 h -0.862 z" /><g
           transform="translate(496.3975,381.0771)"
           id="g126"><path
             id="path128"
             style="fill:#164d99;fill-opacity:1;fill-rule:nonzero;stroke:none"
             d="M 0,0 H -2.062 V 1.048 H 2.95 V 0 H 0.884 V -8.101 H 0 Z" /></g><g
           transform="translate(511.1152,382.125)"
           id="g130"><path
             id="path132"
             style="fill:#164d99;fill-opacity:1;fill-rule:nonzero;stroke:none"
             d="m 0,0 v -5.686 c 0,-1.835 0.604,-2.699 1.957,-2.699 1.374,0 1.947,0.864 1.947,2.699 V 0 H 4.796 V -5.686 C 4.796,-8.171 3.86,-9.4 1.957,-9.4 c -1.902,0 -2.832,1.229 -2.832,3.714 l 0,5.686 z" /></g><g
           transform="translate(528.873,381.0771)"
           id="g134"><path
             id="path136"
             style="fill:#164d99;fill-opacity:1;fill-rule:nonzero;stroke:none"
             d="M 0,0 H -2.066 V 1.048 H 2.941 V 0 H 0.878 V -8.101 H 0 Z" /></g><g
           transform="translate(423.0986,358.6123)"
           id="g138"><path
             id="path140"
             style="fill:#164d99;fill-opacity:1;fill-rule:nonzero;stroke:none"
             d="M 0,0 C 1.24,0 2.115,0.03 2.725,0.67 3.32,1.277 3.646,2.277 3.646,3.57 3.646,4.862 3.328,5.837 2.725,6.46 2.118,7.097 1.26,7.127 0,7.127 H -0.56 V 0 Z m -1.445,8.137 h 1.416 c 1.366,0 2.417,0 3.305,-0.857 C 4.113,6.474 4.563,5.191 4.563,3.554 4.563,1.921 4.113,0.646 3.276,-0.145 2.423,-0.97 1.469,-1 0.297,-1 h -0.326 -1.416 z" /></g><g
           transform="translate(433.1494,366.749)"
           id="g142"><path
             id="path144"
             style="fill:#164d99;fill-opacity:1;fill-rule:nonzero;stroke:none"
             d="M 0,0 H 3.86 V -1.004 H 0.873 V -3.619 H 3.86 V -4.627 H 0.873 v -3.51 H 3.86 v -1 H 0 Z" /></g><g
           transform="translate(446.6543,360.1797)"
           id="g146"><path
             id="path148"
             style="fill:#164d99;fill-opacity:1;fill-rule:nonzero;stroke:none"
             d="m 0,0 c 0,-1.677 -0.924,-2.805 -2.345,-2.805 -1.149,0 -1.954,0.769 -2.228,2.13 l 0.774,0.483 c 0.219,-1.125 0.726,-1.693 1.454,-1.693 0.882,0 1.479,0.705 1.479,1.698 0,0.824 -0.39,1.416 -1.15,1.823 l -0.878,0.482 c -0.98,0.513 -1.453,1.315 -1.453,2.417 0,1.284 0.841,2.247 2.06,2.247 0.879,0 1.53,-0.466 1.89,-1.377 l -0.71,-0.581 c -0.323,0.697 -0.72,1.053 -1.241,1.053 -0.659,0 -1.112,-0.546 -1.112,-1.327 0,-0.658 0.311,-1.11 0.975,-1.475 L -1.437,2.496 C -0.472,1.986 0,1.155 0,0" /></g><g
           transform="translate(460.5244,360.1797)"
           id="g150"><path
             id="path152"
             style="fill:#164d99;fill-opacity:1;fill-rule:nonzero;stroke:none"
             d="m 0,0 c 0,-1.677 -0.947,-2.805 -2.344,-2.805 -1.162,0 -1.975,0.769 -2.25,2.13 l 0.79,0.483 c 0.216,-1.125 0.717,-1.693 1.46,-1.693 0.878,0 1.457,0.705 1.457,1.698 0,0.824 -0.372,1.416 -1.133,1.823 L -2.917,2.118 C -3.88,2.631 -4.35,3.433 -4.35,4.535 c 0,1.284 0.838,2.247 2.051,2.247 0.875,0 1.534,-0.466 1.888,-1.377 L -1.122,4.824 c -0.318,0.697 -0.716,1.053 -1.234,1.053 -0.662,0 -1.125,-0.546 -1.125,-1.327 0,-0.658 0.326,-1.11 0.991,-1.475 L -1.448,2.496 C -0.487,1.986 0,1.155 0,0" /></g><g
           transform="translate(469.2471,365.9531)"
           id="g154"><path
             id="path156"
             style="fill:#164d99;fill-opacity:1;fill-rule:nonzero;stroke:none"
             d="m 0,0 c -0.766,0 -1.545,-0.406 -2.088,-1.109 -0.562,-0.727 -0.837,-1.625 -0.837,-2.7 0,-0.845 0.159,-1.559 0.505,-2.157 0.573,-1.04 1.471,-1.619 2.472,-1.619 0.917,0 1.719,0.467 2.38,1.421 V -7.585 C 1.704,-8.25 0.851,-8.594 -0.033,-8.594 c -0.776,0 -1.523,0.288 -2.154,0.857 -1.067,0.911 -1.649,2.288 -1.649,3.912 0,1.426 0.379,2.556 1.145,3.49 0.74,0.893 1.642,1.344 2.721,1.344 0.875,0 1.641,-0.326 2.402,-0.985 V -1.394 C 1.731,-0.428 0.947,0 0,0" /></g><path
           id="path158"
           style="fill:#164d99;fill-opacity:1;fill-rule:nonzero;stroke:none"
           d="m 477.249,366.749 h 0.869 v -9.137 h -0.869 z" /><g
           transform="translate(483.9531,366.749)"
           id="g160"><path
             id="path162"
             style="fill:#164d99;fill-opacity:1;fill-rule:nonzero;stroke:none"
             d="M 0,0 H 3.864 V -1.004 H 0.878 V -3.619 H 3.864 V -4.627 H 0.878 v -3.51 h 2.986 v -1 H 0 Z" /></g><g
           transform="translate(493.3604,367.1025)"
           id="g164"><path
             id="path166"
             style="fill:#164d99;fill-opacity:1;fill-rule:nonzero;stroke:none"
             d="m 0,0 5.354,-7.313 v 6.959 H 6.187 V -9.867 L 0.836,-2.631 V -9.49 L 0,-9.49 Z" /></g><g
           transform="translate(508.8623,365.9531)"
           id="g168"><path
             id="path170"
             style="fill:#164d99;fill-opacity:1;fill-rule:nonzero;stroke:none"
             d="m 0,0 c -0.766,0 -1.542,-0.406 -2.091,-1.109 -0.558,-0.727 -0.83,-1.625 -0.83,-2.7 0,-0.845 0.169,-1.559 0.498,-2.157 0.585,-1.04 1.475,-1.619 2.469,-1.619 0.917,0 1.725,0.467 2.386,1.421 V -7.585 C 1.716,-8.25 0.865,-8.594 -0.033,-8.594 c -0.773,0 -1.512,0.288 -2.148,0.857 -1.07,0.911 -1.663,2.288 -1.663,3.912 0,1.426 0.39,2.556 1.158,3.49 0.744,0.893 1.646,1.344 2.722,1.344 0.863,0 1.644,-0.326 2.396,-0.985 V -1.394 C 1.726,-0.428 0.955,0 0,0" /></g><g
           transform="translate(516.8584,366.749)"
           id="g172"><path
             id="path174"
             style="fill:#164d99;fill-opacity:1;fill-rule:nonzero;stroke:none"
             d="M 0,0 H 3.865 V -1.004 H 0.866 V -3.619 H 3.865 V -4.627 H 0.866 v -3.51 h 2.999 v -1 H 0 Z" /></g><g
           transform="translate(530.3604,360.1797)"
           id="g176"><path
             id="path178"
             style="fill:#164d99;fill-opacity:1;fill-rule:nonzero;stroke:none"
             d="m 0,0 c 0,-1.677 -0.933,-2.805 -2.341,-2.805 -1.155,0 -1.967,0.769 -2.238,2.13 l 0.793,0.483 c 0.205,-1.125 0.71,-1.693 1.445,-1.693 0.872,0 1.463,0.705 1.463,1.698 0,0.824 -0.381,1.416 -1.128,1.823 l -0.899,0.482 c -0.966,0.513 -1.445,1.315 -1.445,2.417 0,1.284 0.848,2.247 2.061,2.247 0.875,0 1.546,-0.466 1.896,-1.377 L -1.119,4.824 c -0.311,0.697 -0.703,1.053 -1.235,1.053 -0.651,0 -1.115,-0.546 -1.115,-1.327 0,-0.658 0.32,-1.11 0.991,-1.475 L -1.442,2.496 C -0.478,1.986 0,1.155 0,0" /></g><g
           transform="translate(421.6533,351.3779)"
           id="g180"><path
             id="path182"
             style="fill:#164d99;fill-opacity:1;fill-rule:nonzero;stroke:none"
             d="m 0,0 h 3.868 v -1.005 h -2.99 v -2.62 h 2.99 v -1.002 h -2.99 v -3.506 h 2.99 V -9.148 H 0 Z" /></g><g
           transform="translate(431.3438,350.332)"
           id="g184"><path
             id="path186"
             style="fill:#164d99;fill-opacity:1;fill-rule:nonzero;stroke:none"
             d="m 0,0 h -2.066 v 1.046 h 5.01 V 0 H 0.89 V -8.103 H 0 Z" /></g><g
           transform="translate(444.1445,350.332)"
           id="g188"><path
             id="path190"
             style="fill:#164d99;fill-opacity:1;fill-rule:nonzero;stroke:none"
             d="M 0,0 H -2.078 V 1.046 H 2.933 V 0 H 0.869 V -8.103 H 0 Z" /></g><g
           transform="translate(451.127,351.3779)"
           id="g192"><path
             id="path194"
             style="fill:#164d99;fill-opacity:1;fill-rule:nonzero;stroke:none"
             d="M 0,0 H 3.855 V -1.005 H 0.867 v -2.62 H 3.855 V -4.627 H 0.867 V -8.133 H 3.855 V -9.148 H 0 Z" /></g><g
           transform="translate(463.0303,350.582)"
           id="g196"><path
             id="path198"
             style="fill:#164d99;fill-opacity:1;fill-rule:nonzero;stroke:none"
             d="m 0,0 c -0.758,0 -1.542,-0.405 -2.082,-1.116 -0.566,-0.728 -0.844,-1.622 -0.844,-2.7 0,-0.832 0.171,-1.556 0.509,-2.16 0.581,-1.029 1.46,-1.622 2.469,-1.622 0.913,0 1.714,0.474 2.385,1.447 V -7.598 C 1.704,-8.246 0.86,-8.597 -0.024,-8.597 c -0.787,0 -1.53,0.299 -2.168,0.842 -1.054,0.929 -1.645,2.305 -1.645,3.93 0,1.408 0.38,2.563 1.149,3.484 0.745,0.899 1.653,1.351 2.722,1.351 0.874,0 1.644,-0.332 2.403,-0.994 v -1.41 C 1.726,-0.442 0.948,0 0,0" /></g><g
           transform="translate(470.0322,351.3779)"
           id="g200"><path
             id="path202"
             style="fill:#164d99;fill-opacity:1;fill-rule:nonzero;stroke:none"
             d="M 0,0 H 0.867 V -3.529 H 4.76 V 0 H 5.631 V -9.148 H 4.76 v 4.603 H 0.867 V -9.148 H 0 Z" /></g><g
           transform="translate(480.4951,351.7256)"
           id="g204"><path
             id="path206"
             style="fill:#164d99;fill-opacity:1;fill-rule:nonzero;stroke:none"
             d="m 0,0 5.354,-7.295 v 6.947 h 0.821 v -9.507 l -5.342,7.23 V -9.496 H 0 Z" /></g><path
           id="path208"
           style="fill:#164d99;fill-opacity:1;fill-rule:nonzero;stroke:none"
           d="m 491.511,351.378 h 0.872 v -9.148 h -0.872 z" /><g
           transform="translate(502.8018,344.0303)"
           id="g210"><path
             id="path212"
             style="fill:#164d99;fill-opacity:1;fill-rule:nonzero;stroke:none"
             d="M 0,0 C 0.616,0.613 0.969,1.586 0.969,2.721 0.969,3.467 0.823,4.165 0.564,4.708 0.01,5.849 -0.92,6.497 -2.009,6.497 -2.805,6.497 -3.564,6.109 -4.121,5.421 -4.684,4.708 -5,3.759 -5,2.771 c 0,-1.29 0.418,-2.337 1.254,-3.096 0.47,-0.416 1.049,-0.647 1.669,-0.647 0.538,0 1.007,0.125 1.41,0.417 l -1.49,2.014 h 1.072 z m 0.921,-2.673 -0.97,1.301 c -0.582,-0.429 -1.263,-0.637 -2.075,-0.637 -0.831,0 -1.589,0.315 -2.223,0.903 -1.021,0.936 -1.567,2.286 -1.567,3.877 0,1.266 0.415,2.477 1.152,3.38 0.75,0.905 1.713,1.394 2.753,1.394 1.046,0 1.967,-0.436 2.7,-1.268 C 1.481,5.388 1.915,4.135 1.915,2.748 1.915,1.3 1.457,0.06 0.598,-0.802 l 1.39,-1.871 z" /></g><g
           transform="translate(510.0537,351.3779)"
           id="g214"><path
             id="path216"
             style="fill:#164d99;fill-opacity:1;fill-rule:nonzero;stroke:none"
             d="m 0,0 v -5.697 c 0,-1.829 0.586,-2.689 1.955,-2.689 1.371,0 1.948,0.86 1.948,2.689 V 0 h 0.884 v -5.697 c 0,-2.464 -0.935,-3.696 -2.832,-3.696 -1.897,0 -2.833,1.232 -2.833,3.696 l 0,5.697 z" /></g><g
           transform="translate(519.6514,351.3779)"
           id="g218"><path
             id="path220"
             style="fill:#164d99;fill-opacity:1;fill-rule:nonzero;stroke:none"
             d="M 0,0 H 3.85 V -1.005 H 0.868 v -2.62 H 3.85 V -4.627 H 0.868 V -8.133 H 3.85 V -9.148 H 0 Z" /></g><g
           transform="translate(532.1553,344.7988)"
           id="g222"><path
             id="path224"
             style="fill:#164d99;fill-opacity:1;fill-rule:nonzero;stroke:none"
             d="m 0,0 c 0,-1.674 -0.93,-2.799 -2.332,-2.799 -1.161,0 -1.972,0.77 -2.248,2.117 l 0.794,0.49 c 0.214,-1.104 0.71,-1.683 1.454,-1.683 0.872,0 1.451,0.699 1.451,1.698 0,0.818 -0.371,1.424 -1.128,1.833 l -0.898,0.472 c -0.96,0.513 -1.434,1.299 -1.434,2.418 0,1.276 0.836,2.247 2.049,2.247 0.881,0 1.537,-0.482 1.896,-1.394 l -0.721,-0.57 c -0.319,0.686 -0.708,1.059 -1.239,1.059 -0.646,0 -1.113,-0.566 -1.113,-1.328 0,-0.66 0.322,-1.126 0.991,-1.474 L -1.436,2.519 C -0.48,2.003 0,1.156 0,0" /></g><g
           transform="translate(423.0859,327.9473)"
           id="g226"><path
             id="path228"
             style="fill:#164d99;fill-opacity:1;fill-rule:nonzero;stroke:none"
             d="m 0,0 c 1.231,0 2.099,0.006 2.713,0.646 0.593,0.606 0.916,1.6 0.916,2.886 0,1.279 -0.318,2.25 -0.916,2.864 C 2.112,7.039 1.253,7.066 0,7.066 H -0.555 V 0 Z m -1.433,8.072 h 1.397 c 1.357,0 2.423,0 3.298,-0.85 C 4.102,6.413 4.535,5.146 4.535,3.521 4.535,1.886 4.102,0.628 3.262,-0.172 2.416,-0.984 1.459,-1.028 0.282,-1.028 h -0.318 -1.397 z" /></g><g
           transform="translate(430.625,336.0195)"
           id="g230"><path
             id="path232"
             style="fill:#164d99;fill-opacity:1;fill-rule:nonzero;stroke:none"
             d="M 0,0 H 3.83 V -0.991 H 0.861 V -3.602 H 3.83 V -4.601 H 0.861 V -8.094 H 3.83 V -9.101 H 0 Z" /></g><g
           transform="translate(441.0107,336.0195)"
           id="g234"><path
             id="path236"
             style="fill:#164d99;fill-opacity:1;fill-rule:nonzero;stroke:none"
             d="M 0,0 H 0.949 L 3.082,-6.96 5.21,0 H 6.146 L 3.082,-9.446 Z" /></g><g
           transform="translate(450.6533,330.6289)"
           id="g238"><path
             id="path240"
             style="fill:#164d99;fill-opacity:1;fill-rule:nonzero;stroke:none"
             d="M 0,0 H 2.317 L 1.152,3.363 Z M 4.461,-3.71 H 3.527 L 2.586,-0.927 H -0.256 L -1.209,-3.71 h -0.935 l 3.296,9.461 z" /></g><g
           transform="translate(457.457,336.0195)"
           id="g242"><path
             id="path244"
             style="fill:#164d99;fill-opacity:1;fill-rule:nonzero;stroke:none"
             d="M 0,0 H 0.867 V -8.066 H 3.616 V -9.101 H 0 Z" /></g><g
           transform="translate(463.6885,336.0195)"
           id="g246"><path
             id="path248"
             style="fill:#164d99;fill-opacity:1;fill-rule:nonzero;stroke:none"
             d="M 0,0 H 3.836 V -0.991 H 0.869 V -3.602 H 3.836 V -4.601 H 0.869 v -3.493 h 2.967 v -1.007 l -3.836,0 z" /></g><g
           transform="translate(470.5752,336.3799)"
           id="g250"><path
             id="path252"
             style="fill:#164d99;fill-opacity:1;fill-rule:nonzero;stroke:none"
             d="m 0,0 5.333,-7.26 v 6.9 h 0.819 v -9.447 l -5.323,7.178 v -6.832 l -0.829,0 z" /></g><g
           transform="translate(483.5371,335.2305)"
           id="g254"><path
             id="path256"
             style="fill:#164d99;fill-opacity:1;fill-rule:nonzero;stroke:none"
             d="m 0,0 c -0.764,0 -1.528,-0.409 -2.077,-1.106 -0.557,-0.718 -0.826,-1.623 -0.826,-2.684 0,-0.839 0.161,-1.542 0.493,-2.146 0.579,-1.028 1.466,-1.622 2.445,-1.622 0.923,0 1.725,0.476 2.38,1.448 V -7.558 C 1.696,-8.21 0.858,-8.542 -0.027,-8.542 c -0.783,0 -1.507,0.28 -2.149,0.823 -1.061,0.933 -1.64,2.305 -1.64,3.913 0,1.409 0.376,2.543 1.14,3.479 0.738,0.884 1.638,1.326 2.708,1.326 0.86,0 1.639,-0.326 2.383,-0.975 V -1.384 C 1.724,-0.442 0.943,0 0,0" /></g><path
           id="path258"
           style="fill:#164d99;fill-opacity:1;fill-rule:nonzero;stroke:none"
           d="m 489.044,336.02 h 0.859 v -9.101 h -0.859 z" /><g
           transform="translate(493.248,336.0195)"
           id="g260"><path
             id="path262"
             style="fill:#164d99;fill-opacity:1;fill-rule:nonzero;stroke:none"
             d="M 0,0 H 3.841 V -0.991 H 0.872 V -3.602 H 3.841 V -4.601 H 0.872 v -3.493 h 2.969 v -1.007 l -3.841,0 z" /></g><g
           transform="translate(500.1426,336.3799)"
           id="g264"><path
             id="path266"
             style="fill:#164d99;fill-opacity:1;fill-rule:nonzero;stroke:none"
             d="m 0,0 5.326,-7.26 v 6.9 H 6.155 V -9.807 L 0.82,-2.629 V -9.461 H 0 Z" /></g><g
           transform="translate(509.6191,336.3799)"
           id="g268"><path
             id="path270"
             style="fill:#164d99;fill-opacity:1;fill-rule:nonzero;stroke:none"
             d="m 0,0 5.328,-7.26 v 6.9 h 0.817 v -9.447 l -5.322,7.178 v -6.832 l -0.823,0 z" /></g><g
           transform="translate(519.0898,336.0195)"
           id="g272"><path
             id="path274"
             style="fill:#164d99;fill-opacity:1;fill-rule:nonzero;stroke:none"
             d="M 0,0 H 3.844 V -0.991 H 0.875 V -3.602 H 3.844 V -4.601 H 0.875 v -3.493 h 2.969 v -1.007 l -3.844,0 z" /></g><g
           transform="translate(530.0703,329.4736)"
           id="g276"><path
             id="path278"
             style="fill:#164d99;fill-opacity:1;fill-rule:nonzero;stroke:none"
             d="m 0,0 c 0,-1.668 -0.923,-2.779 -2.332,-2.779 -1.148,0 -1.957,0.764 -2.226,2.112 l 0.779,0.488 c 0.214,-1.107 0.713,-1.68 1.447,-1.68 0.863,0 1.461,0.698 1.461,1.692 0,0.814 -0.392,1.408 -1.141,1.813 l -0.878,0.47 c -0.968,0.51 -1.432,1.295 -1.432,2.403 0,1.262 0.829,2.237 2.033,2.237 0.881,0 1.525,-0.467 1.885,-1.365 L -1.118,4.812 c -0.305,0.692 -0.71,1.03 -1.229,1.03 -0.647,0 -1.103,-0.533 -1.103,-1.312 0,-0.652 0.304,-1.114 0.969,-1.448 L -1.441,2.5 C -0.479,1.994 0,1.149 0,0" /></g></g></g></g></svg>