<?xml version="1.0" encoding="UTF-8" standalone="no"?>
<svg
   xmlns:dc="http://purl.org/dc/elements/1.1/"
   xmlns:cc="http://creativecommons.org/ns#"
   xmlns:rdf="http://www.w3.org/1999/02/22-rdf-syntax-ns#"
   xmlns:svg="http://www.w3.org/2000/svg"
   xmlns="http://www.w3.org/2000/svg"
   viewBox="0 0 853.33331 205.33333"
   height="205.33333"
   width="853.33331"
   xml:space="preserve"
   id="svg2"
   version="1.1"><metadata
     id="metadata8"><rdf:RDF><cc:Work
         rdf:about=""><dc:format>image/svg+xml</dc:format><dc:type
           rdf:resource="http://purl.org/dc/dcmitype/StillImage" /></cc:Work></rdf:RDF></metadata><defs
     id="defs6" /><g
     transform="matrix(1.3333333,0,0,-1.3333333,0,205.33333)"
     id="g10"><g
       transform="scale(0.1)"
       id="g12"><path
         id="path14"
         style="fill:#ffffff;fill-opacity:1;fill-rule:nonzero;stroke:none"
         d="M 0,1540 H 6400 V 0 H 0 v 1540" /><path
         id="path16"
         style="fill:#878787;fill-opacity:1;fill-rule:nonzero;stroke:none"
         d="m 395.398,1343.3 c 159.5,27.8 319.5,52.1 478.903,80.1 0.097,-40.2 0.5,-80.3 -0.699,-120.4 -159.602,2 -319.301,0.3 -478.903,0.8 0.199,13.2 0.403,26.3 0.699,39.5" /><path
         id="path18"
         style="fill:#878787;fill-opacity:1;fill-rule:nonzero;stroke:none"
         d="m 2197,1384.7 c 143.4,-0.7 286.8,1.3 430.1,-1.1 -1,-75.2 -0.5,-150.4 -0.4,-225.6 73,-0.6 145.9,0.9 218.9,-0.7 -1.3,-104.4 -0.4,-208.8 -0.3,-313.198 -73,-1.204 -146,-0.204 -219,-0.704 0.6,-91.199 0.2,-182.398 0.1,-273.597 0,-37 7.7,-80.903 42.6,-101.102 47.6,-27.898 105.3,-16.097 157,-9.097 0.1,-100.704 0.1,-201.301 0,-302 C 2709.8,121 2584.6,118.199 2464.9,136.5 c -69.9,15.398 -144.2,40.301 -190.1,98.602 -55.9,60.199 -70.8,145.398 -76.1,224.5 -1.4,128 0.1,256.097 -0.7,384.097 -47,-0.097 -94.1,-0.5 -141.2,0.199 0.2,57.5 0.5,115.102 -0.5,172.602 -54.2,-65.602 -108.2,-131.5 -164,-195.898 -68.9,42 -150.3,75.097 -232.3,61 -15.7,-1.602 -26.9,-13.301 -38.5,-22.5 0,-7.204 0.1,-21.602 0.1,-28.801 37.6,-31.102 88.7,-33.801 134.3,-45.102 C 1859.8,763.898 1966.9,718 2027.8,626.801 2084.1,536.5 2085.2,417 2038.6,322.301 2011.1,259.898 1956.9,214.5 1900.3,179.102 1774.8,112.699 1627.1,103.199 1488.7,124 c -119.6,20.102 -239.4,59.898 -337.6,132.898 72.7,82.903 145.2,166 216.3,250.301 62.2,-52.5 140.3,-89.898 222.6,-92.699 25,-0.102 56.4,2.199 69.7,27 10.3,25 -15.9,44.301 -36.1,52.102 -64.7,26.199 -135.4,33.398 -199.9,60.296 -58.3,23.204 -113.2,58.5 -150.7,109.602 -57.5,72 -68.2,172.199 -46.1,259.5 30.7,114.7 129.2,202.1 239.8,238.5 193.8,71.2 411.7,26.4 590.1,-67.1 0,21.2 0.1,42.4 0.2,63.6 46.7,-0.1 93.4,-0.1 140.1,0 -0.1,75.5 0.3,151.1 -0.1,226.7" /><path
         id="path20"
         style="fill:#878787;fill-opacity:1;fill-rule:nonzero;stroke:none"
         d="m 271.102,1068.7 c 114.699,90.5 262.898,136.1 408.699,126.8 118.5,-1 232.801,-48.8 324.099,-122.8 143.8,-128.7 197.3,-333.001 173.4,-520.302 -226.3,0.204 -452.601,0.403 -678.999,-0.097 4.199,-43.801 39,-76.403 76.301,-95 87.296,-38.5 198.597,-22.199 264.199,49.597 C 942.5,453.898 1046,400.801 1150.6,349.699 1077.7,227 943.102,152.699 805.602,127.102 667.5,102.5 519.5,110.602 391.301,171 c -141.699,58.398 -249.903,189 -286,337.398 -29.1994,117.5 -22.9026,244.704 21.5,357.602 28.597,79.102 82.699,146.5 144.301,202.7" /><path
         id="path22"
         style="fill:#012552;fill-opacity:1;fill-rule:nonzero;stroke:none"
         d="m 3143.5,1186.1 c 125.7,29.8 262.9,-59.1 290.9,-184.2 25.2,-97.798 -17.9,-210.599 -106.2,-261.502 -103.7,-68.898 -257.7,-44.199 -334.5,53.801 -47.1,56.403 -62,135.301 -46,206.201 21.2,93.2 102.3,168.2 195.8,185.7" /><path
         id="path24"
         style="fill:#878787;fill-opacity:1;fill-rule:nonzero;stroke:none"
         d="m 3725.3,1135 c 130.4,60.7 278.8,72 420.1,53 86.3,-12.9 168.5,-51.4 233.1,-110.1 96.1,-100.298 123.1,-244.4 125.1,-378.599 0.3,-182.403 0.5,-364.699 0,-547.102 -133.4,0.199 -266.7,0.199 -400.1,0.102 -0.2,27.301 -0.2,54.699 -0.2,82.097 C 4044.4,151.102 3936.9,124.5 3840,125.699 c -90,3.301 -184.5,30 -249.8,94.903 -62.1,58.097 -92.2,145.296 -89.1,229.296 -4.4,73.903 28,146.903 79.2,199 62.7,53.403 137.9,94.102 219.5,108.704 94.5,24.398 192.3,26.898 289.3,29.5 2.3,42.796 -30.2,82.097 -72.2,89.097 -93.5,20.602 -185.8,-24.097 -257.5,-80.801 -67.7,66.903 -135.5,133.801 -203.6,200.403 -5.5,6.899 -21.7,16.999 -8.9,25.799 50.1,50.7 114.9,83 178.4,113.4" /><path
         id="path26"
         style="fill:#878787;fill-opacity:1;fill-rule:nonzero;stroke:none"
         d="m 5051.5,1045.4 c 63.9,76.8 157.2,133.5 258.6,138.2 75.2,4.2 154.1,-4.4 220.3,-42.8 41.4,-23.3 73,-60.2 98.6,-99.6 61,71.8 144.9,130.7 240.8,140.2 79.9,7.2 165.3,5.8 237,-34.5 48.4,-29.7 93.9,-67.4 122.4,-117.4 46.6,-74 64.6,-162.5 67.9,-248.898 0.4,-209.5 0.2,-419 0.1,-628.5 -147.3,0.296 -294.6,0.699 -441.9,-0.301 -2,189.801 -0.2,379.597 -0.8,569.301 -1.9,27.898 -8.5,56.398 -23,80.597 -21.8,25.301 -60.8,29.403 -90.6,17.403 -43.5,-21.301 -59.1,-73.602 -61.8,-118.5 0.6,-182.801 1.4,-365.5 -0.1,-548.301 -147.4,0.199 -294.8,-0.102 -442.2,0.097 0.3,179.301 -0.4,358.5 0.3,537.704 -0.2,35.796 -4.5,73.296 -22.1,105 -24.2,40 -85.7,38.296 -116.1,6.597 -31.9,-27.097 -36.5,-71.5 -36.4,-110.801 -0.1,-179.5 0.1,-359 -0.1,-538.5 -148.1,0.102 -296.3,-0.597 -444.4,0.403 1.1,335 0,670 0.5,1004.899 144.6,-0.2 289.2,1.9 433.7,-1.1 -0.9,-37 -0.8,-74.1 -0.7,-111.2" /><path
         id="path28"
         style="fill:#ffffff;fill-opacity:1;fill-rule:nonzero;stroke:none"
         d="m 594.102,903.602 c 40.597,10.796 84.699,11.5 124.699,-2.204 47.199,-15.296 83.5,-62.5 81,-112.796 -102,-0.301 -204,0 -306,-0.204 10.699,52 49.097,99.102 100.301,115.204" /><path
         id="path30"
         style="fill:#012552;fill-opacity:1;fill-rule:nonzero;stroke:none"
         d="m 2951,632.199 c 160.5,0 321.1,-0.301 481.6,0.199 0.2,-161.296 0.5,-322.597 -0.2,-483.898 -160.2,0.102 -320.3,1 -480.5,0 -2.2,161.199 -0.5,322.5 -0.9,483.699" /><path
         id="path32"
         style="fill:#ffffff;fill-opacity:1;fill-rule:nonzero;stroke:none"
         d="m 3912,537.301 c 62.7,33.301 136,30.597 204.9,31.199 2.2,-43.699 -0.3,-90.699 -29.7,-125.801 -41.4,-57.597 -134.4,-68.597 -189,-24.199 -38.2,29.602 -28.4,97.801 13.8,118.801" /></g></g></svg>